<?xml version="1.0" standalone="no"?>
<!DOCTYPE svg PUBLIC "-//W3C//DTD SVG 20010904//EN"
 "http://www.w3.org/TR/2001/REC-SVG-20010904/DTD/svg10.dtd">
<svg version="1.0" xmlns="http://www.w3.org/2000/svg"
 width="565.000000pt" height="565.000000pt" viewBox="0 0 565.000000 565.000000"
 preserveAspectRatio="xMidYMid meet">

<g transform="translate(0.000000,565.000000) scale(0.100000,-0.100000)"
fill="#4377B2" stroke="none">
<path d="M415 4181 c-81 -20 -111 -64 -100 -148 6 -49 69 -270 235 -823 91
-304 138 -463 220 -745 92 -316 174 -574 197 -620 31 -62 67 -98 121 -123 48
-21 69 -25 161 -25 200 -1 245 42 326 308 18 61 50 164 70 230 148 482 283
927 318 1048 12 42 24 77 28 77 3 0 60 -168 128 -372 257 -781 362 -1091 386
-1138 14 -27 41 -65 60 -85 57 -56 95 -68 215 -69 90 -1 112 2 150 21 25 13
55 38 68 55 29 41 126 356 212 683 17 66 60 221 95 345 60 214 172 622 217
795 11 44 36 132 53 195 65 227 69 267 32 320 -32 49 -76 70 -154 77 -86 7
-163 -14 -216 -58 -47 -39 -65 -72 -93 -179 -12 -47 -31 -116 -42 -155 -96
-341 -295 -1116 -332 -1295 -15 -74 -31 -128 -34 -120 -3 8 -12 40 -19 70 -8
30 -46 161 -85 290 -39 129 -91 307 -117 395 -25 88 -62 214 -82 280 -19 66
-45 156 -58 200 -135 458 -151 492 -246 540 -128 65 -290 29 -363 -82 -28 -43
-82 -199 -151 -438 -45 -157 -94 -319 -256 -855 -45 -146 -83 -274 -86 -285
-5 -15 -11 -7 -25 35 -19 54 -112 372 -141 480 -35 131 -268 930 -286 982 -36
104 -92 157 -194 184 -55 14 -161 17 -212 5z"/>
<path d="M4715 4179 c-76 -18 -132 -73 -162 -161 -12 -36 -14 -152 -14 -735 0
-381 -1 -693 -3 -693 -4 0 -263 413 -344 547 -146 244 -347 551 -353 540 -4
-7 -19 -55 -33 -107 -13 -52 -47 -171 -75 -265 -28 -93 -51 -178 -51 -188 0
-33 322 -548 724 -1158 153 -232 193 -262 346 -262 105 0 157 20 206 76 67 80
65 29 62 1198 l-3 1054 -22 41 c-55 103 -152 142 -278 113z"/>
</g>
</svg>
